<svg width="36" height="36" viewBox="0 0 36 36" fill="none" xmlns="http://www.w3.org/2000/svg">
<rect x="0.5" y="0.5" width="35" height="35" rx="17.5" fill="#F2F4F7"/>
<path d="M23.0001 13.0001C22.4917 13.0001 22.0251 12.7084 21.7917 12.2584L21.1917 11.0501C20.8084 10.2917 19.8084 9.66675 18.9584 9.66675H17.0501C16.1917 9.66675 15.1917 10.2917 14.8084 11.0501L14.2084 12.2584C13.9751 12.7084 13.5084 13.0001 13.0001 13.0001C11.1917 13.0001 9.75839 14.5251 9.87506 16.3251L10.3084 23.2084C10.4084 24.9251 11.3334 26.3334 13.6334 26.3334H22.3667C24.6667 26.3334 25.5834 24.9251 25.6917 23.2084L26.1251 16.3251C26.2417 14.5251 24.8084 13.0001 23.0001 13.0001ZM16.7501 14.0417H19.2501C19.5917 14.0417 19.8751 14.3251 19.8751 14.6667C19.8751 15.0084 19.5917 15.2917 19.2501 15.2917H16.7501C16.4084 15.2917 16.1251 15.0084 16.1251 14.6667C16.1251 14.3251 16.4084 14.0417 16.7501 14.0417ZM18.0001 23.1001C16.4501 23.1001 15.1834 21.8417 15.1834 20.2834C15.1834 18.7251 16.4417 17.4667 18.0001 17.4667C19.5584 17.4667 20.8167 18.7251 20.8167 20.2834C20.8167 21.8417 19.5501 23.1001 18.0001 23.1001Z" fill="#101828"/>
<rect x="0.5" y="0.5" width="35" height="35" rx="17.5" stroke="#101828"/>
</svg>
